<svg width="85" height="122" viewBox="0 0 85 122" fill="none" xmlns="http://www.w3.org/2000/svg">
<g id="Bubbles">
<path id="small" d="M39.2609 22.9602C32.9316 22.9602 27.782 17.8099 27.782 11.4794C27.782 5.15 32.9316 0.000244141 39.2609 0.000244141C45.5914 0.000244141 50.7415 5.15 50.7415 11.4794C50.741 17.8099 45.5914 22.9602 39.2609 22.9602ZM39.2609 5.79691C36.1281 5.79691 33.5791 8.3457 33.5791 11.4794C33.5791 14.6136 36.1275 17.1636 39.2609 17.1636C42.3948 17.1636 44.9444 14.6136 44.9444 11.4794C44.9438 8.3457 42.3948 5.79691 39.2609 5.79691Z" fill="url(#paint0_linear)"/>
<path id="medium" d="M66.5426 63.7722C56.5603 63.7722 48.4382 55.6495 48.4382 45.6658C48.4382 35.6828 56.5603 27.5607 66.5426 27.5607C76.5256 27.5607 84.6482 35.6828 84.6482 45.6658C84.6476 55.6501 76.5256 63.7722 66.5426 63.7722ZM66.5426 33.6626C59.9239 33.6626 54.5395 39.0477 54.5395 45.6664C54.5395 52.2858 59.9239 57.6714 66.5426 57.6714C73.1619 57.6714 78.5469 52.2858 78.5469 45.6664C78.5463 39.0477 73.1613 33.6626 66.5426 33.6626Z" fill="url(#paint1_linear)"/>
<path id="big" d="M22.4992 122C10.0937 122 0 111.906 0 99.4992C0 87.0933 10.0937 77 22.4992 77C34.9056 77 45 87.0933 45 99.4992C44.9992 111.907 34.9056 122 22.4992 122ZM22.4992 84.5829C14.2739 84.5829 7.58239 91.2749 7.58239 99.5C7.58239 107.726 14.2739 114.419 22.4992 114.419C30.7254 114.419 37.4176 107.726 37.4176 99.5C37.4168 91.2749 30.7246 84.5829 22.4992 84.5829Z" fill="url(#paint2_linear)"/>
</g>
<defs>
<linearGradient id="paint0_linear" x1="39.2618" y1="0.000243978" x2="39" y2="56" gradientUnits="userSpaceOnUse">
<stop stop-color="#D8D8D8"/>
<stop offset="1" stop-color="#D8D8D8" stop-opacity="0"/>
</linearGradient>
<linearGradient id="paint1_linear" x1="71" y1="28" x2="52.5" y2="90" gradientUnits="userSpaceOnUse">
<stop stop-color="#BABABA"/>
<stop offset="1" stop-color="#BABABA" stop-opacity="0"/>
</linearGradient>
<linearGradient id="paint2_linear" x1="22" y1="81.5" x2="22.5" y2="122" gradientUnits="userSpaceOnUse">
<stop offset="0.28363" stop-color="#696969"/>
<stop offset="0.434085" stop-color="white" stop-opacity="0"/>
</linearGradient>
</defs>
</svg>
