<svg width="258" height="340" viewBox="0 0 258 340" fill="none" xmlns="http://www.w3.org/2000/svg">
<g id="Mixing Pot">
<g id="cauldron-svgrepo-com 1">
<g id="Main">
<path id="Vector" d="M231.778 249.623C231.778 228.578 223.475 208.48 208.266 192.377C212.805 190.61 216.071 185.856 216.071 180.267C216.071 173.178 210.828 167.411 204.383 167.411H187.847L214.997 98.4733C217.321 93.1285 215.283 86.691 210.431 84.0942C208.072 82.8319 205.405 82.6555 202.926 83.5982C200.445 84.5409 198.448 86.4896 197.3 89.0851C197.283 89.123 197.267 89.1602 197.252 89.1986L166.19 167.411H129.386C135 167.411 120 167.411 120 167.411C134.5 167.411 120.153 167.411 107 167.411C93.8463 167.411 112 167.411 97.5 167.412C85.5 167.412 146.268 167.41 129.386 167.411H52.0406C45.5953 167.411 40.352 173.178 40.352 180.266C40.352 185.856 43.6188 190.61 48.1587 192.377C32.9486 208.48 24.6455 228.578 24.6455 249.623C24.6455 273.855 35.5059 296.591 55.2264 313.641C56.4812 314.726 57.7637 315.778 59.0701 316.8L55.8577 320.334C51.8487 324.744 51.8487 331.92 55.8583 336.33C57.8636 338.535 60.4969 339.637 63.1302 339.637C65.7634 339.637 68.3978 338.535 70.4021 336.329L77.6274 328.383C92.9084 335.844 110.213 339.817 128.212 339.817C146.21 339.817 163.516 335.845 178.797 328.383L186.023 336.329C187.966 338.466 190.548 339.643 193.295 339.643C196.042 339.643 198.624 338.466 200.566 336.33C202.508 334.194 203.578 331.353 203.578 328.332C203.578 325.31 202.508 322.47 200.566 320.334L197.353 316.801C198.66 315.779 199.942 314.726 201.197 313.642C220.917 296.591 231.778 273.856 231.778 249.623ZM202.311 91.7063C202.814 90.6007 203.674 89.7709 204.738 89.3664C205.817 88.9558 206.978 89.0327 208.005 89.5824C210.126 90.7172 211.012 93.5385 209.98 95.8711C209.963 95.9113 209.945 95.9516 209.929 95.9931L181.801 167.412H172.245L202.311 91.7063ZM45.8987 180.267C45.8987 176.543 48.6535 173.513 52.0401 173.513H204.383C207.769 173.513 210.524 176.543 210.524 180.267C210.524 183.991 207.769 187.02 204.383 187.02H52.0401C48.6535 187.02 45.8987 183.991 45.8987 180.267ZM66.4785 332.016C64.6312 334.048 61.6257 334.047 59.7796 332.016C57.9329 329.985 57.9329 326.68 59.7796 324.648L63.7703 320.259C66.5256 322.172 69.3764 323.953 72.3142 325.598L66.4785 332.016ZM30.1922 249.623C30.1922 228.662 39.2248 208.637 55.6547 193.122H200.771C217.199 208.637 226.231 228.661 226.231 249.623C226.231 295.992 182.259 333.716 128.211 333.716C74.1631 333.716 30.1922 295.992 30.1922 249.623ZM196.643 324.648C197.537 325.633 198.03 326.941 198.03 328.333C198.03 329.725 197.537 331.033 196.643 332.017C195.748 333.001 194.559 333.543 193.294 333.543C192.029 333.543 190.839 333.001 189.944 332.016L184.108 325.598C187.046 323.953 189.897 322.172 192.652 320.26L196.643 324.648Z" fill="#696969"/>
<path id="Vector_2" d="M49.7939 274.726C48.751 274.726 47.7514 274.076 47.2799 272.968C44.0997 265.498 42.4871 257.695 42.4871 249.776C42.4871 238.503 45.6928 227.653 52.0156 217.528C52.8826 216.139 54.6106 215.786 55.872 216.74C57.1346 217.694 57.4552 219.593 56.5882 220.982C50.9122 230.071 48.0343 239.759 48.0343 249.776C48.0343 256.795 49.4705 263.727 52.3035 270.381C52.9531 271.907 52.3551 273.723 50.9677 274.437C50.5883 274.633 50.1878 274.726 49.7939 274.726Z" fill="#696969"/>
</g>
<g id="Control Panel">
<g id="Slider3">
<path id="Vector_3" d="M179.576 300H79.8118V304H179.576V300Z" fill="#B4B4B4"/>
<path id="Vector_4" d="M166.731 307.264C169.473 307.264 171.696 305.04 171.696 302.297C171.696 299.554 169.473 297.33 166.731 297.33C163.989 297.33 161.766 299.554 161.766 302.297C161.766 305.04 163.989 307.264 166.731 307.264Z" fill="#2cc8ab"/>
</g>
<g id="Slider2">
<path id="Vector_5" d="M179.576 283H79.8118V287H179.576V283Z" fill="#B4B4B4"/>
<path id="Vector_6" d="M96.6637 289.598C99.4058 289.598 101.629 287.374 101.629 284.631C101.629 281.888 99.4058 279.664 96.6637 279.664C93.9216 279.664 91.6987 281.888 91.6987 284.631C91.6987 287.374 93.9216 289.598 96.6637 289.598Z" fill="#2cc8ab"/>
</g>
<g id="Slider1">
<path id="Vector_7" d="M179.576 265H79.8118V269H179.576V265Z" fill="#B4B4B4"/>
<path id="Vector_8" d="M129.605 271.934C132.347 271.934 134.57 269.71 134.57 266.967C134.57 264.224 132.347 262 129.605 262C126.863 262 124.64 264.224 124.64 266.967C124.64 269.71 126.863 271.934 129.605 271.934Z" fill="#2cc8ab"/>
</g>
<g id="screens">
<path id="Vector_9" opacity="0.5" d="M152.554 221H137.912V231.488H152.554V221Z" fill="#CECECE"/>
<path id="Vector_10" d="M133.409 221H118.768V231.488H133.409V221Z" fill="#D7D7D7"/>
<path id="Vector_11" d="M152.554 239.347H137.912V249.834H152.554V239.347Z" fill="#B3B3B3"/>
<path id="Vector_12" d="M133.409 239.347H118.768V249.834H133.409V239.347Z" fill="#646464"/>
<path id="Vector_13" opacity="0.5" d="M171.219 239.347H156.578V249.834H171.219V239.347Z" fill="#A7A7A7"/>
<path id="Vector_14" opacity="0.5" d="M171.219 221H156.578V231.488H171.219V221Z" fill="#424242"/>
</g>
<g id="gauges">
<g id="Group 3">
<path id="Vector_15" d="M95.9526 232.483C101.47 232.483 105.943 228.01 105.943 222.492C105.943 216.974 101.47 212.5 95.9526 212.5C90.4352 212.5 85.9626 216.974 85.9626 222.492C85.9626 228.01 90.4352 232.483 95.9526 232.483Z" fill="white" stroke="#E9E9E9"/>
<path id="Vector_16" d="M96 222L102 215" stroke="#333333" stroke-width="3" stroke-miterlimit="10"/>
</g>
<g id="Group 6">
<path id="Vector_17" d="M95.9526 254.483C101.47 254.483 105.943 250.01 105.943 244.492C105.943 238.974 101.47 234.5 95.9526 234.5C90.4352 234.5 85.9626 238.974 85.9626 244.492C85.9626 250.01 90.4352 254.483 95.9526 254.483Z" fill="white" stroke="#E9E9E9"/>
<path id="Vector_18" d="M96 244H86.5" stroke="#333333" stroke-width="3" stroke-miterlimit="10"/>
</g>
</g>
</g>
</g>
<g id="ingredients">
<path id="Tiger Vector" d="M163.151 117C163.151 97 168.651 64 184.151 52" stroke="black" stroke-dasharray="10 10"/>
<path id="Tiger Vector_2" d="M96.6509 117C96.6509 97 91.1509 64 75.6509 52" stroke="black" stroke-dasharray="10 10"/>
<path id="Eye of the Tiger" d="M177.776 14.2693C177.566 14.1802 177.419 14.0459 177.333 13.8664C177.259 13.6915 177.261 13.5033 177.338 13.3016L181.363 2.79627C181.44 2.59457 181.563 2.45787 181.732 2.38619C181.912 2.31919 182.107 2.33024 182.316 2.41932L188.513 5.04973C188.712 5.13412 188.847 5.25019 188.919 5.39793C188.991 5.54567 188.993 5.70918 188.924 5.88847C188.855 6.06776 188.746 6.18439 188.597 6.23835C188.448 6.29232 188.274 6.2771 188.075 6.1927L182.525 3.83659L180.947 7.95467L186.166 10.1701C186.365 10.2545 186.5 10.3706 186.572 10.5183C186.644 10.6661 186.645 10.8296 186.577 11.0089C186.508 11.1882 186.399 11.3048 186.25 11.3587C186.101 11.4127 185.927 11.3975 185.728 11.3131L180.509 9.09764L178.86 13.4006L184.411 15.7567C184.61 15.8411 184.745 15.9572 184.817 16.1049C184.893 16.2415 184.895 16.405 184.822 16.5955C184.753 16.7748 184.644 16.8914 184.495 16.9453C184.346 16.9993 184.172 16.9841 183.973 16.8997L177.776 14.2693ZM195.381 12.5181C195.605 12.3007 195.85 12.2483 196.115 12.3608C196.281 12.4312 196.408 12.5505 196.498 12.7188C196.588 12.8871 196.6 13.0553 196.536 13.2234C196.497 13.3243 196.441 13.4045 196.367 13.4642L187.808 21.6738C187.705 21.7736 187.586 21.8337 187.45 21.8541C187.325 21.8791 187.207 21.8682 187.096 21.8213C186.931 21.751 186.803 21.6316 186.713 21.4633C186.631 21.3109 186.621 21.1506 186.686 20.9825C186.72 20.8929 186.777 20.8126 186.855 20.7417L188.987 18.696L188.463 10.1094C188.449 10.0122 188.459 9.91878 188.493 9.82914C188.558 9.66105 188.685 9.54586 188.876 9.48355C189.078 9.42593 189.267 9.43463 189.444 9.50965C189.555 9.55654 189.647 9.6347 189.72 9.74413C189.805 9.85825 189.851 9.98867 189.859 10.1354L190.211 17.6131L195.381 12.5181ZM201.913 22.3067C202.035 22.3583 202.12 22.4532 202.17 22.5916C202.22 22.73 202.215 22.8776 202.155 23.0345C202.047 23.3146 201.755 23.4903 201.278 23.5615C200.791 23.628 200.302 23.6291 199.813 23.5648C199.328 23.4893 198.876 23.3625 198.456 23.1843C197.208 22.6545 196.363 21.8595 195.922 20.7992C195.492 19.7437 195.53 18.5548 196.036 17.2325C196.358 16.3921 196.802 15.7205 197.367 15.2178C197.936 14.7038 198.577 14.3894 199.289 14.2747C200.012 14.1646 200.743 14.2666 201.483 14.5808C202.532 15.0262 203.233 15.7276 203.586 16.6849C203.938 17.6422 203.887 18.7148 203.432 19.9026C203.346 20.1267 203.239 20.2704 203.112 20.3338C202.985 20.3971 202.822 20.3866 202.624 20.3022L197.288 18.0375C196.649 20.0071 197.18 21.3529 198.881 22.075C199.312 22.2578 199.704 22.3589 200.056 22.3781C200.412 22.3861 200.806 22.3643 201.237 22.3127C201.588 22.2665 201.814 22.2645 201.913 22.3067ZM201.094 15.6468C200.387 15.3467 199.732 15.3293 199.13 15.5947C198.538 15.8647 198.047 16.3924 197.656 17.1775L202.345 19.1679C202.641 18.3293 202.679 17.6095 202.46 17.0083C202.245 16.396 201.79 15.9421 201.094 15.6468ZM211.25 28.615C210.488 28.2915 209.881 27.8318 209.428 27.2359C208.987 26.6447 208.729 25.9618 208.653 25.1871C208.593 24.4059 208.726 23.5895 209.052 22.7378C209.378 21.8862 209.819 21.2067 210.373 20.6992C210.942 20.1853 211.58 19.8765 212.288 19.773C213.006 19.6741 213.747 19.7864 214.509 20.11C215.271 20.4335 215.878 20.8932 216.331 21.4891C216.783 22.0849 217.039 22.7735 217.1 23.5547C217.175 24.3294 217.05 25.1426 216.724 25.9942C216.397 26.8458 215.95 27.5286 215.38 28.0426C214.826 28.55 214.19 28.8531 213.471 28.952C212.753 29.0509 212.012 28.9386 211.25 28.615ZM211.682 27.4889C212.477 27.8265 213.186 27.821 213.807 27.4725C214.444 27.1175 214.958 26.4301 215.348 25.4104C215.731 24.4131 215.809 23.5541 215.585 22.8334C215.364 22.1014 214.862 21.569 214.078 21.2361C213.293 20.9032 212.581 20.9199 211.939 21.2861C211.302 21.6411 210.793 22.3173 210.411 23.3146C210.024 24.3231 209.938 25.1853 210.152 25.9014C210.376 26.6221 210.886 27.1513 211.682 27.4889ZM224.813 21.7089C224.211 21.5052 223.696 21.5082 223.269 21.7178C222.846 21.9161 222.508 22.3459 222.255 23.007L222.049 23.5449L223.888 24.3256C224.076 24.4053 224.2 24.5166 224.261 24.6597C224.321 24.8027 224.32 24.9583 224.255 25.1264C224.191 25.2945 224.092 25.4022 223.958 25.4497C223.824 25.4971 223.663 25.481 223.476 25.4013L221.637 24.6206L219.138 31.1423C219.056 31.3552 218.926 31.4952 218.746 31.5622C218.581 31.6226 218.405 31.613 218.217 31.5333C218.019 31.4489 217.874 31.3226 217.785 31.1542C217.71 30.9794 217.714 30.7855 217.796 30.5726L220.294 24.0509L219.184 23.5797C218.997 23.5 218.865 23.3919 218.788 23.2553C218.728 23.1123 218.727 22.9623 218.787 22.8055C218.852 22.6374 218.953 22.524 219.091 22.4653C219.24 22.4114 219.409 22.4243 219.596 22.504L220.707 22.9752L220.823 22.6726C221.209 21.6641 221.76 20.9796 222.476 20.6191C223.197 20.2474 224.034 20.2249 224.987 20.5515L225.431 20.7008C225.727 20.8003 225.92 20.915 226.012 21.045C226.114 21.1797 226.127 21.3479 226.05 21.5496C225.925 21.8746 225.661 21.9774 225.257 21.8582L224.813 21.7089ZM164.339 26.9548C164.713 27.1525 164.838 27.4139 164.713 27.7388C164.64 27.9293 164.512 28.0445 164.33 28.0844C164.163 28.1178 163.946 28.0647 163.678 27.9251L163.244 27.7015C162.386 27.2592 161.837 26.7136 161.598 26.0648C161.359 25.416 161.421 24.6154 161.786 23.6629L163.403 19.444L162.293 18.9727C162.105 18.893 161.973 18.7849 161.897 18.6484C161.836 18.5053 161.836 18.3554 161.896 18.1985C161.96 18.0304 162.061 17.917 162.199 17.8584C162.349 17.8044 162.517 17.8173 162.705 17.897L163.815 18.3682L164.543 16.4689C164.624 16.256 164.747 16.1193 164.912 16.0588C165.08 15.9871 165.27 15.9958 165.48 16.0849C165.678 16.1693 165.815 16.2989 165.889 16.4737C165.968 16.6374 165.966 16.8257 165.885 17.0386L165.157 18.9379L166.996 19.7186C167.173 19.7936 167.292 19.9027 167.352 20.0457C167.424 20.1934 167.428 20.3514 167.364 20.5194C167.303 20.6763 167.199 20.7817 167.05 20.8357C166.916 20.8831 166.761 20.8694 166.584 20.7943L164.745 20.0137L163.103 24.2998C162.866 24.9161 162.816 25.4159 162.952 25.7992C163.103 26.176 163.42 26.4867 163.905 26.7313L164.339 26.9548ZM173.152 22.097C174.102 22.5002 174.714 23.0795 174.99 23.8349C175.27 24.5791 175.204 25.489 174.792 26.5648L173.046 31.1199C172.965 31.3328 172.84 31.4751 172.671 31.5468C172.507 31.6072 172.325 31.5953 172.126 31.5109C171.916 31.4218 171.772 31.2954 171.693 31.1318C171.619 30.957 171.623 30.7631 171.704 30.5502L173.437 26.0287C173.716 25.3003 173.773 24.6992 173.608 24.2252C173.454 23.7559 173.056 23.3853 172.416 23.1133C171.675 22.7992 170.996 22.7781 170.379 23.0499C169.761 23.3218 169.301 23.85 169.001 24.6344L167.43 28.7356C167.348 28.9485 167.223 29.0908 167.054 29.1625C166.901 29.2277 166.719 29.2157 166.509 29.1266C166.299 29.0375 166.155 28.9112 166.077 28.7476C166.002 28.5727 166.006 28.3788 166.087 28.1659L170.183 17.4758C170.256 17.2853 170.377 17.1542 170.546 17.0825C170.726 17.0155 170.915 17.0242 171.114 17.1086C171.324 17.1977 171.46 17.3273 171.524 17.4974C171.602 17.6611 171.603 17.8437 171.525 18.0454L169.838 22.4493C170.292 22.0687 170.806 21.8504 171.38 21.7943C171.954 21.7382 172.544 21.8391 173.152 22.097ZM182.254 33.5037C182.375 33.5553 182.461 33.6503 182.51 33.7886C182.56 33.927 182.555 34.0746 182.495 34.2315C182.387 34.5116 182.095 34.6873 181.619 34.7585C181.131 34.8251 180.642 34.8262 180.153 34.7619C179.669 34.6864 179.216 34.5596 178.797 34.3814C177.548 33.8516 176.704 33.0565 176.262 31.9963C175.832 30.9407 175.87 29.7518 176.377 28.4296C176.699 27.5891 177.142 26.9176 177.707 26.4148C178.277 25.9008 178.917 25.5865 179.629 25.4717C180.352 25.3617 181.083 25.4637 181.823 25.7778C182.873 26.2233 183.574 26.9246 183.926 27.882C184.278 28.8393 184.227 29.9118 183.772 31.0996C183.686 31.3238 183.58 31.4675 183.453 31.5308C183.326 31.5942 183.163 31.5836 182.964 31.4992L177.629 29.2346C176.989 31.2041 177.52 32.55 179.222 33.272C179.652 33.4549 180.044 33.5559 180.396 33.5752C180.753 33.5832 181.146 33.5614 181.577 33.5097C181.929 33.4635 182.154 33.4615 182.254 33.5037ZM181.434 26.8438C180.727 26.5437 180.072 26.5264 179.47 26.7917C178.878 27.0618 178.387 27.5894 177.997 28.3746L182.686 30.365C182.981 29.5264 183.019 28.8065 182.8 28.2054C182.585 27.5931 182.13 27.1392 181.434 26.8438ZM191.968 39.9332C191.758 39.8441 191.61 39.7098 191.525 39.5303C191.455 39.3442 191.461 39.1448 191.542 38.9318L195.394 28.8804L191.831 27.3683C191.632 27.2839 191.497 27.1678 191.425 27.02C191.354 26.8723 191.354 26.7032 191.427 26.5127C191.5 26.3222 191.611 26.2 191.76 26.146C191.909 26.092 192.083 26.1073 192.282 26.1917L200.782 29.7997C200.981 29.8841 201.116 30.0001 201.188 30.1479C201.26 30.2956 201.259 30.4647 201.186 30.6552C201.113 30.8457 201.002 30.968 200.853 31.0219C200.704 31.0759 200.53 31.0607 200.331 30.9763L196.769 29.4641L192.918 39.5156C192.836 39.7285 192.709 39.8764 192.536 39.9593C192.367 40.031 192.178 40.0223 191.968 39.9332ZM198.838 42.8495C198.639 42.7651 198.495 42.6388 198.406 42.4705C198.331 42.2956 198.335 42.1017 198.417 41.8888L201.134 34.7957C201.216 34.5828 201.339 34.4461 201.503 34.3856C201.683 34.3186 201.872 34.3273 202.071 34.4117C202.27 34.4961 202.407 34.6257 202.481 34.8005C202.56 34.9642 202.558 35.1524 202.476 35.3654L199.759 42.4585C199.673 42.6826 199.548 42.8249 199.383 42.8854C199.219 42.9459 199.037 42.9339 198.838 42.8495ZM202.748 32.6468C202.482 32.5343 202.297 32.3644 202.191 32.1372C202.086 31.91 202.082 31.6675 202.181 31.4098C202.276 31.1633 202.436 30.9967 202.662 30.9102C202.887 30.8236 203.133 30.8366 203.398 30.9491C203.663 31.0617 203.848 31.2315 203.954 31.4588C204.06 31.686 204.065 31.9228 203.971 32.1694C203.872 32.4271 203.71 32.5992 203.484 32.6858C203.258 32.7723 203.013 32.7593 202.748 32.6468ZM211.788 38.5361C211.998 38.6252 212.14 38.7571 212.214 38.932C212.288 39.1068 212.287 39.2951 212.209 39.4968L209.479 46.6236C209.011 47.845 208.35 48.6326 207.495 48.9863C206.636 49.3513 205.599 49.2758 204.384 48.7601C203.202 48.2584 202.309 47.6058 201.705 46.8022C201.393 46.4093 201.293 46.0672 201.405 45.7758C201.465 45.619 201.553 45.5065 201.669 45.4385C201.796 45.3751 201.926 45.3716 202.058 45.4279C202.169 45.4747 202.337 45.6376 202.564 45.9164C202.874 46.2822 203.193 46.6064 203.521 46.8891C203.849 47.1718 204.273 47.4233 204.792 47.6437C205.576 47.9766 206.249 48.0145 206.81 47.7575C207.366 47.5117 207.799 46.9854 208.108 46.1786L208.662 44.7331C208.228 45.1613 207.715 45.4123 207.121 45.4861C206.539 45.5646 205.922 45.4656 205.27 45.1889C204.563 44.8889 203.998 44.4535 203.575 43.8829C203.162 43.317 202.919 42.6602 202.846 41.9126C202.784 41.1697 202.908 40.3949 203.217 39.5881C203.526 38.7813 203.948 38.133 204.482 37.6433C205.028 37.1583 205.635 36.8625 206.305 36.7561C206.986 36.6544 207.68 36.7536 208.387 37.0536C209.028 37.3256 209.532 37.7024 209.9 38.1842C210.268 38.666 210.474 39.2161 210.52 39.8348L210.867 38.9271C210.945 38.7254 211.062 38.5864 211.22 38.51C211.389 38.4383 211.578 38.447 211.788 38.5361ZM205.967 44.1753C206.74 44.5035 207.446 44.5037 208.086 44.1758C208.729 43.8366 209.227 43.2077 209.579 42.2888C209.927 41.3811 209.979 40.5758 209.734 39.8728C209.505 39.1633 208.999 38.642 208.215 38.3091C207.43 37.9762 206.711 37.977 206.056 38.3114C205.417 38.6393 204.923 39.2571 204.575 40.1648C204.223 41.0836 204.167 41.9002 204.407 42.6144C204.663 43.3221 205.183 43.8424 205.967 44.1753ZM218.725 48.9849C218.846 49.0365 218.932 49.1315 218.982 49.2698C219.032 49.4082 219.026 49.5558 218.966 49.7127C218.859 49.9928 218.567 50.1685 218.09 50.2397C217.602 50.3063 217.114 50.3074 216.625 50.2431C216.14 50.1676 215.688 50.0408 215.268 49.8626C214.02 49.3327 213.175 48.5377 212.734 47.4775C212.303 46.4219 212.341 45.233 212.848 43.9108C213.17 43.0703 213.614 42.3987 214.179 41.896C214.748 41.382 215.389 41.0677 216.1 40.9529C216.823 40.8428 217.555 40.9449 218.295 41.259C219.344 41.7045 220.045 42.4058 220.397 43.3632C220.75 44.3205 220.698 45.393 220.243 46.5808C220.157 46.805 220.051 46.9487 219.924 47.012C219.797 47.0754 219.634 47.0648 219.435 46.9804L214.1 44.7158C213.461 46.6853 213.992 48.0311 215.693 48.7532C216.124 48.9361 216.515 49.0371 216.868 49.0564C217.224 49.0644 217.618 49.0426 218.048 48.9909C218.4 48.9447 218.626 48.9427 218.725 48.9849ZM217.906 42.325C217.199 42.0249 216.544 42.0076 215.941 42.2729C215.35 42.543 214.859 43.0706 214.468 43.8558L219.157 45.8462C219.453 45.0076 219.491 44.2877 219.272 43.6866C219.057 43.0743 218.601 42.6204 217.906 42.325ZM227.682 45.2829C228.159 45.4462 228.318 45.7351 228.159 46.1497C228.09 46.329 227.985 46.4536 227.843 46.5235C227.704 46.5821 227.51 46.5711 227.258 46.4903L226.742 46.3298C225.976 46.0829 225.32 46.1173 224.776 46.4333C224.246 46.7426 223.861 47.2111 223.621 47.8386L222.056 51.9231C221.97 52.1472 221.845 52.2895 221.68 52.35C221.516 52.4104 221.334 52.3985 221.135 52.3141C220.937 52.2297 220.792 52.1033 220.703 51.935C220.628 51.7602 220.632 51.5663 220.714 51.3534L223.431 44.2602C223.513 44.0473 223.642 43.913 223.817 43.8572C223.997 43.7902 224.181 43.7965 224.368 43.8762C224.545 43.9513 224.671 44.0762 224.745 44.251C224.823 44.4147 224.824 44.5973 224.747 44.799L224.386 45.7403C224.807 45.3457 225.277 45.1086 225.795 45.0291C226.325 44.9542 226.874 45.0116 227.444 45.2012L227.682 45.2829Z" fill="black"/>
<path id="Kanye West" d="M47.2216 27.7924C47.4441 27.8767 47.5917 28.0135 47.6646 28.2026C47.7284 28.368 47.7177 28.5514 47.6325 28.7526C47.5543 28.937 47.4278 29.0664 47.2529 29.1406C47.1013 29.205 46.9166 29.2009 46.6987 29.1283L37.9227 26.1077L39.9594 31.3907C40.0459 31.6153 40.0524 31.8257 39.9789 32.022C39.9007 32.2064 39.7509 32.3457 39.5293 32.4397C39.3078 32.5337 39.1079 32.543 38.9295 32.4674C38.7466 32.38 38.6118 32.2241 38.5252 31.9995L34.2127 20.813C34.1261 20.5884 34.1219 20.3839 34.2 20.1995C34.2736 20.0032 34.4212 19.8581 34.6427 19.764C34.8643 19.67 35.0665 19.6667 35.2494 19.754C35.4278 19.8296 35.5603 19.9797 35.6468 20.2042L37.6083 25.2922L41.6856 17.0221C41.7637 16.8376 41.8902 16.7083 42.0651 16.634C42.24 16.5598 42.419 16.5664 42.6019 16.6537C42.7803 16.7293 42.9013 16.8498 42.9651 17.0153C43.0335 17.1926 43.0215 17.3902 42.9291 17.6082L39.221 25.0409L47.2216 27.7924ZM49.6205 17.7591C51.7542 16.8534 53.2585 17.5351 54.1333 19.8044L55.9923 24.6264C56.0743 24.8392 56.0762 25.0378 55.9981 25.2222C55.9316 25.4017 55.7934 25.536 55.5836 25.6251C55.3737 25.7142 55.1796 25.7209 55.0012 25.6454C54.8228 25.5698 54.6926 25.4257 54.6106 25.2129L54.2826 24.362C54.2569 24.9642 54.0714 25.5037 53.7261 25.9803C53.3761 26.4452 52.9038 26.8038 52.3092 27.0562C51.7612 27.2889 51.2107 27.3919 50.6577 27.3653C50.1164 27.3338 49.6343 27.174 49.2112 26.886C48.7881 26.598 48.4831 26.2117 48.2963 25.7271C48.0457 25.0771 48.0153 24.5055 48.2051 24.0123C48.3903 23.5074 48.8264 23.0197 49.5134 22.5493C50.1959 22.0671 51.2017 21.5439 52.5309 20.9796L52.9157 20.8163L52.6901 20.2313C52.4167 19.5222 52.0705 19.064 51.6515 18.8568C51.244 18.6447 50.7197 18.6747 50.0784 18.9469C49.2856 19.2835 48.5653 19.8436 47.9177 20.6273C47.6804 20.9619 47.4976 21.1564 47.3693 21.2108C47.2294 21.2702 47.0923 21.2665 46.958 21.1998C46.8237 21.133 46.7247 21.0169 46.6609 20.8514C46.5971 20.6859 46.5891 20.5243 46.6368 20.3665C46.6916 20.192 46.8047 19.9927 46.9761 19.7686C47.2931 19.359 47.683 18.9803 48.1459 18.6326C48.616 18.268 49.1075 17.9769 49.6205 17.7591ZM52.0642 25.84C52.7638 25.543 53.244 25.0641 53.5048 24.4033C53.7727 23.7257 53.7609 23.0087 53.4693 22.2523L53.2711 21.7382L52.9562 21.8718C51.9302 22.3074 51.1672 22.6862 50.6673 23.0085C50.1629 23.3188 49.835 23.6299 49.6839 23.9416C49.5398 24.2366 49.5452 24.585 49.7001 24.9868C49.8778 25.4478 50.1891 25.7626 50.6341 25.9313C51.0861 26.0832 51.5628 26.0528 52.0642 25.84ZM59.6993 13.4809C61.7397 12.6148 63.1997 13.3223 64.079 15.6033L65.9312 20.4076C66.0177 20.6322 66.0219 20.8367 65.9438 21.0211C65.8728 21.1888 65.7265 21.3197 65.5049 21.4137C65.2834 21.5078 65.0857 21.5229 64.9119 21.4592C64.7335 21.3836 64.6011 21.2335 64.5145 21.009L62.6965 16.2933C62.3867 15.4896 62.0038 14.9714 61.5477 14.7386C61.1033 14.5009 60.543 14.5256 59.8667 14.8126C59.0855 15.1442 58.5551 15.6513 58.2755 16.3339C57.996 17.0164 58.0156 17.7713 58.3346 18.5986L60.0022 22.9243C60.0888 23.1489 60.093 23.3534 60.0148 23.5378C59.9438 23.7055 59.7975 23.8364 59.576 23.9304C59.3544 24.0245 59.1568 24.0396 58.9829 23.9759C58.8046 23.9003 58.6721 23.7502 58.5855 23.5257L55.7014 16.0444C55.6194 15.8316 55.6174 15.633 55.6956 15.4486C55.7737 15.2641 55.9236 15.1249 56.1451 15.0308C56.355 14.9418 56.5433 14.9375 56.71 15.018C56.8883 15.0936 57.0163 15.2318 57.0937 15.4327L57.4423 16.3369C57.5171 15.6862 57.7528 15.1186 58.1493 14.6339C58.5414 14.1375 59.058 13.7531 59.6993 13.4809ZM71.6781 8.95321C71.697 8.61511 71.8464 8.38668 72.1262 8.26789C72.3011 8.19366 72.4813 8.18593 72.6668 8.24473C72.8522 8.30353 72.9792 8.42157 73.0475 8.59885C73.0885 8.70522 73.1016 8.80967 73.0869 8.9122L72.314 21.7416C72.3058 21.8964 72.2571 22.034 72.1678 22.1544C72.0902 22.2698 71.9931 22.3523 71.8765 22.4018C71.7016 22.476 71.5215 22.4837 71.336 22.4249C71.1667 22.373 71.0479 22.2584 70.9796 22.0811C70.9431 21.9866 70.93 21.8821 70.9402 21.7678L71.1324 18.5712L64.7444 12.4534C64.6658 12.3905 64.6083 12.3117 64.5719 12.2172C64.5035 12.0399 64.5201 11.8541 64.6216 11.6597C64.7347 11.4604 64.8845 11.3212 65.0711 11.242C65.1877 11.1925 65.3121 11.1809 65.4444 11.2073C65.5883 11.2287 65.7145 11.2921 65.8229 11.3973L71.3066 16.8056L71.6781 8.95321ZM83.4678 11.3547C83.5961 11.3002 83.7274 11.3064 83.8616 11.3732C83.9959 11.44 84.095 11.5561 84.1587 11.7215C84.2727 12.017 84.1734 12.3755 83.861 12.7969C83.5369 13.2232 83.1668 13.6004 82.7505 13.9284C82.3297 14.2446 81.8977 14.4967 81.4546 14.6847C80.1371 15.244 78.9409 15.291 77.8661 14.8258C76.8029 14.3557 76.0025 13.4233 75.4649 12.0287C75.1232 11.1422 74.9915 10.2904 75.07 9.47323C75.1438 8.64421 75.411 7.91192 75.8715 7.27636C76.3437 6.63584 76.9704 6.14978 77.7516 5.81818C78.8592 5.348 79.8808 5.34072 80.8162 5.79633C81.7517 6.25194 82.4609 7.10614 82.9438 8.35893C83.035 8.59531 83.0544 8.78648 83.0021 8.93244C82.9498 9.07841 82.8188 9.19593 82.6089 9.28502L76.9772 11.6755C77.8659 13.6638 79.208 14.2769 81.0036 13.5147C81.4583 13.3217 81.8261 13.0968 82.107 12.84C82.3834 12.5714 82.6671 12.2516 82.9582 11.8804C83.193 11.5745 83.3629 11.3992 83.4678 11.3547ZM78.1996 6.92764C77.4534 7.24439 76.944 7.73566 76.6716 8.40143C76.4108 9.06225 76.4058 9.84138 76.6568 10.7388L81.6064 8.63783C81.2459 7.77314 80.7728 7.19694 80.187 6.90923C79.5966 6.6097 78.9342 6.61584 78.1996 6.92764ZM59.9598 30.1626C59.9472 29.9891 59.9856 29.8422 60.0748 29.7218C60.1595 29.5896 60.2719 29.4938 60.4118 29.4344C60.5983 29.3552 60.7785 29.3475 60.9523 29.4112C61.1333 29.4582 61.2602 29.5762 61.3331 29.7653C61.365 29.8481 61.3839 29.95 61.3899 30.0712L61.7908 43.0419C61.7963 43.2321 61.7473 43.4042 61.6439 43.5582C61.5359 43.7003 61.3944 43.8085 61.2195 43.8827C61.0563 43.952 60.8887 43.975 60.7169 43.9516C60.5406 43.9165 60.3913 43.8285 60.2692 43.6878L53.055 35.3215L53.3783 46.6128C53.3838 46.803 53.3348 46.9751 53.2314 47.1291C53.1234 47.2712 52.9877 47.3769 52.8245 47.4462C52.6613 47.5155 52.4937 47.5384 52.3219 47.5151C52.1456 47.4799 51.9963 47.392 51.8742 47.2513L43.5506 37.6436C43.4791 37.5639 43.4275 37.4827 43.3956 37.4C43.3227 37.2109 43.3334 37.0275 43.4278 36.8499C43.5338 36.6674 43.6801 36.5366 43.8666 36.4574C44.0065 36.398 44.1507 36.3849 44.2992 36.4181C44.4548 36.4346 44.5856 36.5098 44.6914 36.6436L52.0188 45.2508L51.6758 33.8027C51.6658 33.6007 51.7089 33.4311 51.8053 33.2939C51.8971 33.1449 52.0188 33.0382 52.1703 32.9739C52.3219 32.9096 52.4801 32.8974 52.6448 32.9376C52.8095 32.9777 52.9552 33.074 53.0818 33.2265L60.375 41.745L59.9598 30.1626ZM72.77 36.5249C72.8982 36.4705 73.0295 36.4767 73.1638 36.5434C73.2981 36.6102 73.3971 36.7263 73.4609 36.8918C73.5748 37.1873 73.4756 37.5457 73.1631 37.9671C72.8391 38.3935 72.4689 38.7707 72.0526 39.0986C71.6318 39.4148 71.1999 39.6669 70.7568 39.855C69.4392 40.4143 68.2431 40.4613 67.1683 39.9961C66.1051 39.5259 65.3047 38.5935 64.7671 37.1989C64.4253 36.3125 64.2937 35.4607 64.3721 34.6435C64.446 33.8145 64.7132 33.0822 65.1737 32.4466C65.6458 31.8061 66.2725 31.32 67.0537 30.9884C68.1614 30.5183 69.1829 30.511 70.1184 30.9666C71.0538 31.4222 71.763 32.2764 72.246 33.5292C72.3371 33.7656 72.3565 33.9567 72.3043 34.1027C72.252 34.2487 72.1209 34.3662 71.911 34.4553L66.2794 36.8458C67.168 38.8341 68.5101 39.4471 70.3057 38.6849C70.7605 38.4919 71.1283 38.267 71.4092 38.0102C71.6855 37.7417 71.9693 37.4218 72.2604 37.0507C72.4952 36.7447 72.665 36.5695 72.77 36.5249ZM67.5018 32.0979C66.7555 32.4146 66.2462 32.9059 65.9737 33.5717C65.7129 34.2325 65.708 35.0116 65.959 35.9091L70.9085 33.8081C70.5481 32.9434 70.0749 32.3672 69.4891 32.0795C68.8988 31.78 68.2363 31.7861 67.5018 32.0979ZM79.0879 36.3187C78.5515 36.5463 78.0134 36.6991 77.4736 36.777C76.9454 36.8499 76.4492 36.8473 75.985 36.7693C75.7204 36.7166 75.5187 36.6509 75.3799 36.5723C75.2482 36.477 75.1481 36.3406 75.0798 36.1634C75.0205 36.0097 75.0135 35.8683 75.0587 35.7391C75.1109 35.5931 75.207 35.4905 75.347 35.4311C75.4869 35.3717 75.7251 35.3737 76.0616 35.4372C76.4934 35.5014 76.9034 35.5268 77.2917 35.5133C77.6871 35.483 78.1412 35.3589 78.6543 35.1412C79.2839 34.8739 79.7303 34.5538 79.9935 34.1807C80.2568 33.8077 80.3064 33.4084 80.1423 32.983C80.0421 32.723 79.8982 32.5433 79.7107 32.4441C79.5187 32.3331 79.2425 32.2853 78.8821 32.3008C78.5172 32.3044 78.0065 32.3699 77.3501 32.4972C76.2375 32.7082 75.3867 32.7186 74.7978 32.5285C74.209 32.3384 73.7892 31.9183 73.5386 31.2683C73.3427 30.7601 73.3095 30.2515 73.439 29.7427C73.5684 29.2339 73.8347 28.7633 74.2379 28.3309C74.6527 27.8935 75.1749 27.5412 75.8045 27.2739C76.2593 27.0809 76.7215 26.9603 77.1914 26.9122C77.6684 26.8472 78.1134 26.8577 78.5264 26.9437C79.0322 27.0591 79.3443 27.2704 79.4628 27.5777C79.522 27.7314 79.5255 27.8812 79.4733 28.0271C79.421 28.1731 79.3307 28.2733 79.2025 28.3277C79.0625 28.3871 78.8139 28.3758 78.4566 28.2936C78.0482 28.2195 77.6754 28.1852 77.3383 28.1907C77.0013 28.1962 76.617 28.2906 76.1856 28.4737C75.6376 28.7063 75.2424 29.0185 75 29.4102C74.7692 29.797 74.7335 30.1972 74.893 30.6109C74.9932 30.8709 75.1335 31.0589 75.3139 31.1748C75.5014 31.274 75.7601 31.3293 76.0901 31.3405C76.4271 31.3349 76.8866 31.2774 77.4685 31.1679C78.3297 31.0087 79.017 30.9439 79.5305 30.9735C80.0555 30.9981 80.4706 31.1245 80.7756 31.3526C81.0806 31.5807 81.3243 31.9312 81.5065 32.4039C81.7936 33.1485 81.717 33.8824 81.2767 34.6057C80.8319 35.3171 80.1023 35.8881 79.0879 36.3187ZM88.0215 31.165C88.4432 31.0273 88.7202 31.1298 88.8523 31.4725C88.9297 31.6734 88.9132 31.8593 88.8026 32.03C88.6992 32.1839 88.4971 32.3109 88.1965 32.411L87.7106 32.576C86.7505 32.901 85.9532 32.9094 85.3188 32.6011C84.6844 32.2927 84.1735 31.6363 83.7862 30.6317L82.0708 26.1819L80.899 26.6793C80.7008 26.7634 80.5251 26.783 80.3721 26.7379C80.2261 26.6761 80.1213 26.5625 80.0575 26.397C79.9891 26.2197 79.9869 26.0556 80.0509 25.9047C80.1264 25.7488 80.2634 25.6288 80.4616 25.5447L81.6334 25.0473L80.8611 23.044C80.7745 22.8194 80.7726 22.6209 80.8553 22.4482C80.9334 22.2638 81.0832 22.1245 81.3048 22.0305C81.5146 21.9414 81.7088 21.9346 81.8871 22.0102C82.061 22.074 82.1912 22.2181 82.2777 22.4427L83.05 24.446L84.9914 23.6219C85.1779 23.5427 85.3442 23.534 85.4901 23.5959C85.6477 23.6527 85.7607 23.7698 85.829 23.9471C85.8928 24.1126 85.8869 24.2732 85.8113 24.4291C85.7429 24.5682 85.6153 24.6773 85.4288 24.7565L83.4874 25.5806L85.2302 30.1013C85.4808 30.7513 85.7913 31.1696 86.1617 31.3562C86.5393 31.526 86.9972 31.5173 87.5356 31.33L88.0215 31.165Z" fill="black"/>
</g>
</g>
</svg>
